<mxfile host="Electron" modified="2023-10-10T03:23:51.333Z" agent="Mozilla/5.0 (Windows NT 10.0; Win64; x64) AppleWebKit/537.36 (KHTML, like Gecko) draw.io/22.0.2 Chrome/114.0.5735.289 Electron/25.8.4 Safari/537.36" etag="Ocz6z4dp2mURFlJtzpOW" version="22.0.2" type="device">
  <diagram name="PÃ¡gina-1" id="kmiqjMr4kh7lqiiJHEdZ">
    <mxGraphModel dx="1036" dy="614" grid="1" gridSize="10" guides="1" tooltips="1" connect="1" arrows="1" fold="1" page="1" pageScale="1" pageWidth="827" pageHeight="1169" math="0" shadow="0">
      <root>
        <mxCell id="0" />
        <mxCell id="1" parent="0" />
        <mxCell id="x8geY0qoV3uQT4ySW_yp-1" value="A(&lt;u&gt;a1&lt;/u&gt;, &lt;u&gt;a2&lt;/u&gt;, a3, b, ab1)" style="text;html=1;align=center;verticalAlign=middle;resizable=0;points=[];autosize=1;strokeColor=none;fillColor=none;" vertex="1" parent="1">
          <mxGeometry x="240" y="240" width="130" height="30" as="geometry" />
        </mxCell>
        <mxCell id="x8geY0qoV3uQT4ySW_yp-2" value="B(&lt;u&gt;b&lt;/u&gt;, b1)" style="text;html=1;align=center;verticalAlign=middle;resizable=0;points=[];autosize=1;strokeColor=none;fillColor=none;" vertex="1" parent="1">
          <mxGeometry x="240" y="320" width="70" height="30" as="geometry" />
        </mxCell>
        <mxCell id="x8geY0qoV3uQT4ySW_yp-3" value="" style="shape=curlyBracket;whiteSpace=wrap;html=1;rounded=1;flipH=1;labelPosition=right;verticalLabelPosition=middle;align=left;verticalAlign=middle;rotation=-90;" vertex="1" parent="1">
          <mxGeometry x="270" y="220" width="20" height="40" as="geometry" />
        </mxCell>
        <mxCell id="x8geY0qoV3uQT4ySW_yp-4" value="FK" style="text;html=1;align=center;verticalAlign=middle;resizable=0;points=[];autosize=1;strokeColor=none;fillColor=none;fontSize=8;fontColor=#99004D;" vertex="1" parent="1">
          <mxGeometry x="310" y="230" width="30" height="20" as="geometry" />
        </mxCell>
        <mxCell id="x8geY0qoV3uQT4ySW_yp-5" value="PK" style="text;html=1;align=center;verticalAlign=middle;resizable=0;points=[];autosize=1;strokeColor=none;fillColor=none;fontSize=8;fontColor=#00CC00;" vertex="1" parent="1">
          <mxGeometry x="265" y="210" width="30" height="20" as="geometry" />
        </mxCell>
        <mxCell id="x8geY0qoV3uQT4ySW_yp-6" value="PK" style="text;html=1;align=center;verticalAlign=middle;resizable=0;points=[];autosize=1;strokeColor=none;fillColor=none;fontSize=8;fontColor=#00CC00;" vertex="1" parent="1">
          <mxGeometry x="250" y="340" width="30" height="20" as="geometry" />
        </mxCell>
        <mxCell id="x8geY0qoV3uQT4ySW_yp-7" value="" style="endArrow=classic;startArrow=classic;html=1;rounded=0;exitX=0.408;exitY=0.041;exitDx=0;exitDy=0;exitPerimeter=0;entryX=0.656;entryY=0.922;entryDx=0;entryDy=0;entryPerimeter=0;" edge="1" parent="1" source="x8geY0qoV3uQT4ySW_yp-2" target="x8geY0qoV3uQT4ySW_yp-1">
          <mxGeometry width="50" height="50" relative="1" as="geometry">
            <mxPoint x="320" y="311.99999999999994" as="sourcePoint" />
            <mxPoint x="360" y="220" as="targetPoint" />
          </mxGeometry>
        </mxCell>
      </root>
    </mxGraphModel>
  </diagram>
</mxfile>
